<svg xmlns="http://www.w3.org/2000/svg" width="38" height="38" viewBox="0 0 38 38"><defs><style>.a{fill:#e6e6e6;}</style></defs><path class="a" d="M18.926,0a19,19,0,0,0,0,38A19.177,19.177,0,0,0,38,18.926,19.043,19.043,0,0,0,18.926,0Zm0,35.788A16.788,16.788,0,1,1,35.788,18.926,16.818,16.818,0,0,1,18.926,35.788Z"/><g transform="translate(6.68 6.68)"><path class="a" d="M102.246,90a12.321,12.321,0,0,0,0,24.641,12.7,12.7,0,0,0,7.6-2.524,1.113,1.113,0,0,0-1.355-1.767,10.44,10.44,0,0,1-6.24,2.078,10.109,10.109,0,1,1,10.168-10.183v1.113a2.227,2.227,0,0,1-4.453,0V97.793a1.113,1.113,0,0,0-2.227,0v.071a5.736,5.736,0,0,0-3.488-1.184,5.566,5.566,0,0,0,0,11.133,5.764,5.764,0,0,0,4.285-1.916,4.451,4.451,0,0,0,8.11-2.537v-1.113A12.364,12.364,0,0,0,102.246,90Zm0,15.6a3.355,3.355,0,0,1,0-6.709,3.357,3.357,0,1,1,0,6.709Z" transform="translate(-90 -90)"/></g></svg>