<svg xmlns="http://www.w3.org/2000/svg" width="25.667" height="19.533" viewBox="0 0 25.667 19.533"><defs><style>.a{fill:gray;}</style></defs><g transform="translate(0 -57.75)"><g transform="translate(0 57.75)"><path class="a" d="M22.534,57.75H3.139A3.141,3.141,0,0,0,0,60.889V74.145a3.141,3.141,0,0,0,3.139,3.139h19.39a3.141,3.141,0,0,0,3.139-3.139V60.894A3.138,3.138,0,0,0,22.534,57.75Zm1.7,16.395a1.707,1.707,0,0,1-1.7,1.7H3.139a1.707,1.707,0,0,1-1.7-1.7V60.894a1.707,1.707,0,0,1,1.7-1.7h19.39a1.707,1.707,0,0,1,1.7,1.7V74.145Z" transform="translate(0 -57.75)"/><path class="a" d="M68.979,115.788l6.277-5.63a.718.718,0,1,0-.961-1.067l-8.657,7.77-1.689-1.508c-.005-.005-.011-.011-.011-.016a1.061,1.061,0,0,0-.117-.1l-6.872-6.15a.718.718,0,0,0-.956,1.073l6.352,5.677-6.325,5.922a.72.72,0,0,0-.032,1.014.734.734,0,0,0,.526.228.719.719,0,0,0,.489-.191l6.421-6.007,1.742,1.556a.715.715,0,0,0,.956-.005l1.79-1.6,6.384,6.065a.719.719,0,0,0,1.014-.027.72.72,0,0,0-.027-1.014Z" transform="translate(-52.791 -106.186)"/></g></g></svg>