<svg xmlns="http://www.w3.org/2000/svg" width="11.115" height="18.478" viewBox="0 0 11.115 18.478"><defs><style>.a{fill:#e6e6e6;}</style></defs><g transform="translate(-102.027)"><path class="a" d="M111.518,1.606a5.62,5.62,0,0,0-7.867,0,5.256,5.256,0,0,0-1.624,3.879,13.786,13.786,0,0,0,1.389,4.583q1.389,3.212,2.779,5.846t1.389,2.562q.217-.4.6-1.083t1.335-2.58q.956-1.895,1.678-3.482t1.335-3.284a8.379,8.379,0,0,0,.613-2.562A5.256,5.256,0,0,0,111.518,1.606ZM108.775,6.64a1.714,1.714,0,0,1-2.923-1.209,1.591,1.591,0,0,1,.505-1.191,1.744,1.744,0,0,1,2.418,0,1.591,1.591,0,0,1,.505,1.191A1.65,1.65,0,0,1,108.775,6.64Z"/></g></svg>