<svg xmlns="http://www.w3.org/2000/svg" width="31.116" height="28.394" viewBox="0 0 31.116 28.394"><defs><style>.a{fill:#009c95;}</style></defs><g transform="translate(0 -22.397)"><g transform="translate(9.067 33.334)"><g transform="translate(0 0)"><path class="a" d="M170.859,204.873l-3.329-2.347a.912.912,0,0,0-1.437.745v1.436H150.107a.912.912,0,1,0,0,1.823h15.986v1.436a.913.913,0,0,0,1.437.745l3.329-2.347A.913.913,0,0,0,170.859,204.873Z" transform="translate(-149.195 -202.358)"/></g></g><g transform="translate(0 22.397)"><g transform="translate(0 0)"><path class="a" d="M26.161,42.448a.912.912,0,0,0-1.246.333,12.374,12.374,0,1,1,0-12.373.912.912,0,0,0,1.578-.913,14.2,14.2,0,1,0,0,14.2A.912.912,0,0,0,26.161,42.448Z" transform="translate(0 -22.397)"/></g></g></g></svg>