<svg xmlns="http://www.w3.org/2000/svg" width="38" height="38" viewBox="0 0 38 38"><defs><style>.a{fill:#e6e6e6;}</style></defs><g transform="translate(-706 -587)"><g transform="translate(557.02 479.487)"><g transform="translate(158.425 113.413)"><path class="a" d="M168.115,113.413a6.549,6.549,0,0,0-6.544,6.544v3.156h-2.036a1.114,1.114,0,0,0-1.111,1.111V135.3a1.114,1.114,0,0,0,1.111,1.111H176.7a1.114,1.114,0,0,0,1.111-1.111v-11.07a1.114,1.114,0,0,0-1.111-1.111h-2.036v-3.156A6.565,6.565,0,0,0,168.115,113.413Zm-4.322,6.553a4.322,4.322,0,0,1,8.645,0v3.156h-8.645v-3.156Zm11.8,14.226H160.646v-8.857h14.948Z" transform="translate(-158.425 -113.413)"/></g></g><g transform="translate(633 587)"><g transform="translate(73)"><path class="a" d="M78.347,32.2A18.991,18.991,0,1,0,73,19,18.965,18.965,0,0,0,78.347,32.2ZM92,2.187A16.835,16.835,0,0,1,108.813,19c0,1.153-2.246,16.3-16.813,16.767S75.187,21.134,75.187,19A16.835,16.835,0,0,1,92,2.187Z" transform="translate(-73)"/></g></g></g></svg>