<svg xmlns="http://www.w3.org/2000/svg" width="38" height="38" viewBox="0 0 38 38"><defs><style>.a{fill:#e6e6e6;}</style></defs><path class="a" d="M19,2.375A16.625,16.625,0,1,1,2.375,19,16.645,16.645,0,0,1,19,2.375M19,0A19,19,0,1,0,38,19,19,19,0,0,0,19,0ZM29.592,25.353l-.107-.325a3.009,3.009,0,0,0-1.837-1.735l-2.809-.768a2.752,2.752,0,0,0-2.405.631l-1.016,1.016a10.789,10.789,0,0,1-7.587-7.589l1.016-1.016a2.754,2.754,0,0,0,.629-2.405l-.765-2.809a3.006,3.006,0,0,0-1.737-1.837l-.32-.107a2.542,2.542,0,0,0-2.375.561L8.758,10.493a2.832,2.832,0,0,0-.445,1.044A17.943,17.943,0,0,0,26.42,29.685a2.8,2.8,0,0,0,1.092-.441l1.521-1.521A2.544,2.544,0,0,0,29.592,25.353Z"/></svg>