<svg xmlns="http://www.w3.org/2000/svg" width="38" height="38" viewBox="0 0 38 38"><defs><style>.a{fill:#e6e6e6;}</style></defs><g transform="translate(-73)"><g transform="translate(73)"><path class="a" d="M78.347,32.2a19.889,19.889,0,1,0-.243-.265A1.121,1.121,0,0,0,78.347,32.2ZM92,35.813a16.741,16.741,0,0,1-10.859-3.988c4.927-1.635,6.749-3.623,7.423-4.949a8.006,8.006,0,0,0,3.148.641h.254a8.045,8.045,0,0,0,3.38-.751c.63,1.326,2.419,3.38,7.49,5.059A16.66,16.66,0,0,1,92,35.813ZM85.858,15.487v-.066c.265-5.755,4.507-6.208,5.81-6.208h.353c1.292,0,5.545.453,5.81,6.208v.066c.011.055.552,5.38-1.933,8.174a5.108,5.108,0,0,1-4.01,1.668h-.066a5.129,5.129,0,0,1-4.01-1.668C85.317,20.889,85.847,15.542,85.858,15.487ZM92,2.187a16.8,16.8,0,0,1,12.626,27.9c-7.136-2.077-7.412-4.6-7.412-4.628v.055h-.077c.133-.133.265-.265.4-.409,3.038-3.413,2.53-9.257,2.474-9.831-.3-6.1-4.485-8.263-7.987-8.263h-.353c-3.5,0-7.7,2.165-7.987,8.263-.055.563-.552,6.407,2.474,9.831.177.2.365.387.552.563-.232.641-1.4,2.673-7.335,4.408A16.8,16.8,0,0,1,92,2.187Z" transform="translate(-73)"/></g></g></svg>