<svg xmlns="http://www.w3.org/2000/svg" width="14.636" height="28" viewBox="0 0 14.636 28"><defs><style>.a{fill:gray;}</style></defs><g transform="translate(-112.321 0)"><g transform="translate(112.321 0)"><path class="a" d="M187.611,4.523a2.108,2.108,0,0,0,1.547-.714,2.194,2.194,0,0,0,.595-1.606,2.258,2.258,0,0,0-.684-1.577A2.049,2.049,0,0,0,187.492,0a2.108,2.108,0,0,0-1.547.714,2.305,2.305,0,0,0-.625,1.606,2.1,2.1,0,0,0,.684,1.577A2.142,2.142,0,0,0,187.611,4.523Z" transform="translate(-180.978 0)"/><path class="a" d="M126.48,91.542l-3.272-1.785-2.677-4.284a2.366,2.366,0,0,0-1.9-.952,2.189,2.189,0,0,0-1.487.654l-4.046,4.105a1.309,1.309,0,0,0-.238.535l-.535,4.581v.119a1.016,1.016,0,0,0,1.011,1.011.88.88,0,0,0,.684-.3,1.284,1.284,0,0,0,.327-.654l.416-3.927,1.428-1.428-1.309,10.947-2.32,5.176a2.082,2.082,0,0,0-.119.655,1.5,1.5,0,0,0,.446,1.1,1.315,1.315,0,0,0,1.1.387,1.376,1.376,0,0,0,1.309-.833l2.5-5.592a.68.68,0,0,1,.059-.208q.06-.149.119-.268a.529.529,0,0,0,.059-.238l.3-2.677,2.558,8.805a1.4,1.4,0,0,0,1.487,1.011,1.427,1.427,0,0,0,1.041-.446,1.5,1.5,0,0,0,.446-1.1.487.487,0,0,0-.03-.149.491.491,0,0,1-.03-.149l-3.57-12.2.416-3.986,1.011,1.606a1.061,1.061,0,0,0,.3.3l3.51,1.963a1.949,1.949,0,0,0,.476.119.932.932,0,0,0,.714-.327,1.076,1.076,0,0,0,.3-.744A.932.932,0,0,0,126.48,91.542Z" transform="translate(-112.321 -79.494)"/></g></g></svg>